# xmcd
#
# Track frame offsets:
#	150
#	20182
#	39585
#	54045
#	69248
#	88029
#	102913
#	118559
#	136740
#	154863
#	172181
#	189651
#	206213
#	219105
#	234248
#	252278
#	270424
#	285845
#	301423
#	317960
#
# Disc length: 4503 seconds
#
# Revision: 0
# Processed by: cddbd v1.5.2PL0 Copyright (c) Steve Scherf et al.
# Submitted via: audiograbber 1.83.01
#
DISCID=13119514
DTITLE=MARCEL PAVEL - Frumoasa mea
DYEAR=2009
DGENRE=Romance
TTITLE0=Frumoasa mea
TTITLE1=Te vreau lângã mine
TTITLE2=Doar pentru tine
TTITLE3=Unde esti
TTITLE4=Nu-mi spune adio
TTITLE5=Ia-mi si sufletul cu tine
TTITLE6=De-as mai trãi o viatã
TTITLE7=Esti minunatã
TTITLE8=Nu fi tristã
TTITLE9=Tu esti iubita mea
TTITLE10=Oare
TTITLE11=Poate
TTITLE12=Fãrã tine
TTITLE13=De dragul tãu
TTITLE14=Te cere inima
TTITLE15=O lacrimã ce doare
TTITLE16=Zâmbetul tãu
TTITLE17=Te iubesc
TTITLE18=Doar a mea
TTITLE19=No podre vivir
EXTD=
EXTT0=
EXTT1=
EXTT2=
EXTT3=
EXTT4=
EXTT5=
EXTT6=
EXTT7=
EXTT8=
EXTT9=
EXTT10=
EXTT11=
EXTT12=
EXTT13=
EXTT14=
EXTT15=
EXTT16=
EXTT17=
EXTT18=
EXTT19=
PLAYORDER=
